/* XPM */
static char *bottom_right_active[] = {
/* columns rows colors chars-per-pixel */
"20 20 2 1 ",
"  c #A2A2A3",
". c None",
/* pixels */
"................... ",
"................... ",
"................... ",
"................... ",
"................... ",
"................... ",
"................... ",
"................... ",
"................... ",
"................... ",
"................... ",
"................... ",
"................... ",
"................... ",
"................... ",
"................... ",
"................... ",
"................... ",
"................... ",
"                    "
};
