/* XPM */
static char *bottom_right_inactive[] = {
/* columns rows colors chars-per-pixel */
"20 20 2 1 ",
"  c #BCBCBC",
". c None",
/* pixels */
"................... ",
"................... ",
"................... ",
"................... ",
"................... ",
"................... ",
"................... ",
"................... ",
"................... ",
"................... ",
"................... ",
"................... ",
"................... ",
"................... ",
"................... ",
"................... ",
"................... ",
"................... ",
"................... ",
"                    "
};
