/* XPM */
static char *close_active[] = {
/* columns rows colors chars-per-pixel */
"22 22 24 1 ",
"  c #5B5B5B",
". c #5C5C5D",
"X c #5D5D5D",
"o c #7D7D7D",
"O c #7E7E7E",
"+ c #808080",
"@ c #969696",
"# c #9A9A9A",
"$ c #9C9C9C",
"% c #A1A1A1",
"& c #A2A3A2",
"* c #A2A2A3",
"= c #A3A2A3",
"- c #F0F0F0",
"; c #F3F3F3",
": c #F4F4F4",
"> c #F6F6F6",
", c #F7F7F7",
"< c #F8F8F8",
"1 c #F8F9F9",
"2 c #FAFAFB",
"3 c #FBFBFB",
"4 c #FCFCFC",
"5 c #FFFFFF",
/* pixels */
"&&&&&&&&&&&&&&&&&&&&&&",
"5555555555555555555555",
"5555555555555555555555",
"5555555555555555555555",
"5555555555555555555555",
"5555555555555555555555",
"555555;#>5555<#:555555",
"555535#XO>55>+X#545545",
"355555>OX+>>OXO>455545",
"5535335;OXOOXO>5553554",
"<5535555>OXXO>53533535",
"53353335:OXXO;35354544",
"3533533;O Oo o;3533352",
"333333;o o;;O O;533333",
"333333@ o;33;O @333332",
"333333-@;3333;@-333333",
"333<333333<3<3<33342<4",
"33333<3>3<33<333<32222",
"3<33<33<333333>3322242",
"<3<2<3>3<3>3>33<>2<<>>",
">3>3<2>23>3>>3>3>3>323",
"3>3<<<3><<>3<>3><>3>>3"
};
