/* XPM */
static char *close_prelight[] = {
/* columns rows colors chars-per-pixel */
"22 22 22 1 ",
"  c #F30000",
". c #E74141",
"X c #E74241",
"o c #E46969",
"O c #E56C6C",
"+ c #A1A1A1",
"@ c #A2A3A2",
"# c #A2A2A3",
"$ c #F4EBEB",
"% c #F5EBEB",
"& c #F6F0F0",
"* c #F7F1F1",
"= c #F8F0F0",
"- c #F9F3F3",
"; c #F9F3F4",
": c #F9F4F4",
"> c #F8F8F8",
", c #F8F8F9",
"< c #F8F9F9",
"1 c #FBFBFB",
"2 c #FCFCFC",
"3 c #FFFFFF",
/* pixels */
"@@@@@@@@@@@@@@@@++@+@+",
"3333333333333333333333",
"3333333333333333333333",
"3333333333333333333333",
"3333333333333333333333",
"3333333333333333333333",
"333333%O-3333;O=333333",
"333313O .*33-. O331333",
"333333-. .::. .:313333",
"2222123*. X. .*3333131",
"22233231:.  .:32311311",
"13232213*.  .*22131313",
"2222113*X .. .*3131122",
"122213&. .**. .&13112<",
"111111o X*11&. o1111<2",
"111111$o&1111&o$111112",
"111111>111>1>11111>111",
"11>1>1>11>21>1>11>111:",
"1112>11>21>211>111112>",
">>>>>>2>>>1>>>>1>>>>>>",
">1>1>>>><<<2>2>>2<>>><",
">>>>>2>>>><<>>:>><<2<<"
};
