/* XPM */
static char *close_pressed[] = {
/* columns rows colors chars-per-pixel */
"22 22 20 1 ",
"  c #F30000",
". c #E73E3E",
"X c #E74141",
"o c #E46969",
"O c #E56B6C",
"+ c #E56C6C",
"@ c #A1A1A1",
"# c #A2A3A2",
"$ c #A2A2A3",
"% c #F4EAEA",
"& c #F4EBEB",
"* c #F7F1F1",
"= c #F8F3F2",
"- c #F9F4F4",
"; c #F8F8F8",
": c #F8F9F9",
"> c #FAFAFB",
", c #FBFBFB",
"< c #FCFCFC",
"1 c #FFFFFF",
/* pixels */
"######################",
"1111111111111111111111",
"1111111111111111111111",
"1111111111111111111111",
"1111111111111111111111",
"1111111111111111111111",
"1111111111111111111111",
"1111,1&+*1111-O&,111,1",
"11,1,1+ X=11*X +,111,1",
"1,1111*X X==X X*11,11,",
",,1,11,*X XX X=11,,1,1",
"1,1,,,1,*X  X*,1,1,,,1",
",1,,,,,1*X  X*1,1,,1>,",
",,1,1,,*X XX X*,,,,,1,",
",,,,,,*X X&*X X*,,,,,,",
",,,,,,o .*,,*. o,,,,,,",
",,,;,,%o&,,,,%+%,>,,,,",
",,,,,;;,;,,,,,;,,,;,;,",
";;,;;,,;;,,,;,;,,,,,,;",
";,;,;,;;;,;;;;,;;;;;;;",
",;,,;,;;;;,;;,;;;,;;;;",
";;;;;;;;;;;;;;;;;;;,;>"
};
