/* XPM */
static char *hide_prelight[] = {
/* columns rows colors chars-per-pixel */
"22 22 9 1 ",
"  c black",
". c #A1A1A1",
"X c #A2A3A2",
"o c #A2A2A3",
"O c #A3A2A3",
"+ c #F8F8F8",
"@ c #FBFBFB",
"# c #FCFCFC",
"$ c #FFFFFF",
/* pixels */
"XXXXXXXXXXXXXXX.XXXXXX",
"$$$$$$$$$$$$$$$$$$$$$$",
"$$$$$$$$$$$$$$$$$$$$$$",
"$$$$$$$$$$$$$$$$$$$$$$",
"$$$$$$$$$$$$$$$$$$$$$$",
"$$$$$$$$$$$$$$$$$$$$$$",
"$$$$$$$@$$$$$$$$$$$$$$",
"$$$$@$$$$@$@$$$$@$$$$@",
"$$@$$$$@@$$$$@$$$$$@$$",
"@@$$@@$$$$$@@$$$@$@$$@",
"$@@$$@@$@$$$@$@@@$$$@$",
"$@$@@$$@@@@@@@@$$@@@$@",
"@$@@@$@$@$@$$$@@@$@$@@",
"@@@@@$          @@@@@@",
"$@@@@@          @$@@@@",
"@@@@@@@@@@@@@@@@@@@@@@",
"@@@@+@+@@@@@@@@@@@@+@+",
"@@@+@@+@+@@+@+@+@+@@@@",
"@@+@@@@+@@@@+@+@@@@@+@",
"+@@+++@+++++@++@++++++",
"+@+++++@+++@@++@@++@@+",
"++++++++++++++++++++++"
};
