/* XPM */
static char *maximize_inactive[] = {
/* columns rows colors chars-per-pixel */
"22 22 7 1 ",
"  c #B4B4B4",
". c #BCBCBC",
"X c #C2C2C2",
"o c #C8C8C8",
"O c #F0F0F0",
"+ c #F4F4F4",
"@ c #F8F8F8",
/* pixels */
"......................",
"@@@@@@@@@@@@@@@@@@@@@@",
"@@@@@@@@@@@@@@@@@@@@@@",
"@@@@@@@@@@@@@@@@@@@@@@",
"@@@@@@@@@@@@@@@@@@@@@@",
"@@@@@@@@@@@@@@@@@@@@@@",
"@@@@@@@@@@      @@@@@@",
"@@@@@@@@@@      @@@@@@",
"@@@@@@@@@@@+X   @@@@@@",
"@@@@@@@@@@+X X  @@@@@@",
"@@@@@@@@@@o X+  @@@@@@",
"@@@@@@@@@@Oo+@  @@@@@@",
"@@@@@@@@@@@@@@@@@@@@@@",
"@@@@@@   @@@@@@@@@@@@@",
"@@@@@@   @@@@@@@@@@@@@",
"@@@@@@   @@@@@@@@@@@@@",
"@@@@@@@@@@@@@@@@@@@@@@",
"@@@@@@@@@@@@@@@@@@@@@@",
"@@@@@@@@@@@@@@@@@@@@@@",
"@@@@@@@@@@@@@@@@@@@@@@",
"@@@@@@@@@@@@@@@@@@@@@@",
"@@@@@@@@@@@@@@@@@@@@@@"
};
