/* XPM */
static char *maximize_pressed[] = {
/* columns rows colors chars-per-pixel */
"22 22 15 1 ",
"  c black",
". c #1F1F1F",
"X c #222222",
"o c #323232",
"O c #343434",
"+ c #A1A1A1",
"@ c #A2A3A2",
"# c #A2A2A3",
"$ c #A3A2A3",
"% c #DDDDDE",
"& c #EFEFEF",
"* c #F0F1F1",
"= c #F8F8F8",
"- c #FBFBFB",
"; c #FFFFFF",
/* pixels */
"@@@@@@@@@@@@@@@+@@@@@@",
";;;;;;;;;;;;;;;;;;;;;;",
";;;;;;;;;;;;;;;;;;;;;;",
";;;;;;;;;;;;;;;;;;;;;;",
";;;;;;;;;;;;;;;;;;;;;;",
";;;;;;;;;;;;;;;;;;;;;;",
";;;;;;;-;;;;;;;;;;;;;;",
";;;;-;;;;;      ;-;;;;",
";-;;;-;;;;      ;;-;;;",
";;-;;;-;;-;*X   ;-;-;-",
"--;--;;---&. X  -;-;--",
"-;-;---;-;o X*  ;-;--;",
"-;----;--;%O&;  ;--;;-",
"--;--;--------;-------",
"------   -------------",
"------   -------------",
"----=-   ---=---------",
"-----=---=--=-=--==-=-",
"-=-==------=--=-=---=-",
"=-=-==-===--==-=-=====",
"=-==-==--=====-======-",
"==================-==="
};
