/* XPM */
static char *maximize_active[] = {
/* columns rows colors chars-per-pixel */
"22 22 18 1 ",
"  c #5B5B5B",
". c #5C5D5D",
"X c #5E5E5E",
"o c #7E7E7E",
"O c #808080",
"+ c #838382",
"@ c #8E8E8D",
"# c #A1A1A1",
"$ c #A2A3A2",
"% c #A2A2A3",
"& c #A3A2A3",
"* c #ECECEC",
"= c #F5F5F5",
"- c #F7F7F7",
"; c #F8F8F9",
": c #FBFBFB",
"> c #FCFCFC",
", c #FFFFFF",
/* pixels */
"$$$$$$$$$$#$$$$#$$$$$$",
",,,,,,,,,,,,,,,,,,,,,,",
",,,,,,,,,,,,,,,,,,,,,,",
",,,,,,,,,,,,,,,,,,,,,,",
",,,,,,,,,,,,,,,,,,,,,,",
",,,,,,,,,,,,,,,,,,,,,,",
",,,,,,,,,,XXXXXX,,,,,,",
",,,,:,:,,,XXXXXX:,,,,:",
",,:,,,:,:,,=+XXX,,,,:,",
"::,,::,,,:=oX+ X:,:,:,",
":,:,,:,::,@ O= X:,,,,,",
",::,:,:,:,*@=,  ,:::::",
":,::::,:,:,::,::,::::,",
"::::::   ::::::::::,::",
"::::::   ::::::,::::::",
"::::::   :::::::::::::",
"::;:::;:::;:-::::::;::",
"::::;::::;:::::;:-:::;",
":;::;:;;::::-;::::-:;:",
";:;;;;:;-:=;;:-:-::-;-",
"=:=:;:=::=::;:=:;:;-:-",
":-:;;;:=;:=:==:;-=::=:"
};
