/* XPM */
static char *maximize_prelight[] = {
/* columns rows colors chars-per-pixel */
"22 22 13 1 ",
"  c black",
". c #1F1F1F",
"X c #212121",
"o c #323232",
"O c #A1A1A1",
"+ c #A2A3A2",
"@ c #A2A2A3",
"# c #DEDEDE",
"$ c #EFEFEF",
"% c #F2F2F1",
"& c #F8F8F8",
"* c #FBFBFB",
"= c #FFFFFF",
/* pixels */
"++++++++++O++++O+++++O",
"======================",
"======================",
"======================",
"======================",
"======================",
"==========      ======",
"====*=*===      ===*==",
"*===*==*===%X   *====*",
"==**==*==*$. X  ==*=*=",
"*=*==**=*=o X%  =*=*==",
"**=*=*=**=#o$=  *=*=**",
"=**=**==*=*==**=**=***",
"*****=   *******=*****",
"******   *************",
"******   *************",
"******&******&&*****&&",
"**&*&****&&*****&*****",
"**&***&&**&*&****&*&&*",
"*&*&&&*&&&*&&&&&&*&*&&",
"&*&&&&&**&&*&&*&*&&**&",
"&&&&&&&&&&&&&&&&&&&&&&"
};
