/* XPM */
static char *menu_active[] = {
/* columns rows colors chars-per-pixel */
"22 22 28 1 ",
"  c #5B5B5B",
". c #5C5D5D",
"X c #5E5E5D",
"o c #5E5E5E",
"O c #7B7B7B",
"+ c #7E7E7E",
"@ c #898989",
"# c #8A8A8A",
"$ c #A09F9F",
"% c #A0A0A0",
"& c #A1A1A1",
"* c #A2A3A2",
"= c #A2A2A3",
"- c #A3A2A3",
"; c #A8A8A8",
": c #ADAEAD",
"> c #AEADAE",
", c #E5E5E5",
"< c #E6E6E6",
"1 c #E7E7E7",
"2 c #F6F6F6",
"3 c #F7F7F7",
"4 c #FAFAFA",
"5 c #FBFAFA",
"6 c #FAFAFB",
"7 c #FBFBFB",
"8 c #FCFCFC",
"9 c #FFFFFF",
/* pixels */
"**********%***********",
"9999999999999999999999",
"9999999999999999999999",
"9999999999999999999999",
"9999999999999999999999",
"9999999999999999999999",
"9999999979XX9799999999",
"9999797>O*..*O>9998999",
"8989887+...XXX+8989989",
"9899988$X#11#X*9998998",
"889889...1971.  888988",
"888888...1971...898888",
"8888888$ @,1@ $8888882",
"8888882O      O2888888",
"8888877;O$  $O;7284888",
"7878878327  7278888848",
"7787338488488348884448",
"8337874438443844824883",
"3388444483888428444344",
"8773424428334483442824",
"4882442483882382282382",
"2324244222228824828824"
};
