/* XPM */
static char *menu_prelight[] = {
/* columns rows colors chars-per-pixel */
"22 22 17 1 ",
"  c black",
". c #1E1E1E",
"X c #2D2D2D",
"o c #4D4D4D",
"O c #4F4F4F",
"+ c #4F4F50",
"@ c #5E5E5E",
"# c #626162",
"$ c #A1A1A1",
"% c #A2A3A2",
"& c #A2A2A3",
"* c #D2D2D2",
"= c #F2F2F2",
"- c #F5F5F5",
"; c #F8F8F8",
": c #FBFBFB",
"> c #FFFFFF",
/* pixels */
"%%%%%%%%%$%%%%%$%%%%%%",
">>>>>>>>>>>>>>>>>>>>>>",
">>>>>>>>>>>>>>>>>>>>>>",
">>>>>>>>>>>>>>>>>>>>>>",
">>>>>>>>>>>>>>>>>>>>>>",
">>>>>>>>>>>>>>>>>>>>>>",
">>>>>>>>->  >->>>>>>>>",
">>>>:>:#.+  o.#>>>>:>>",
":>>>:>-.      .-:>>>>:",
">>::>>>o X**X o>>>:>:>",
":>:>:>   *>>*   >:>:>>",
">:>:>:   *>:*   :>:>::",
"::>:>::o X**X o>>:::>:",
"::::::=.      .=::>:::",
":::::::@.o  o.@>::::::",
"::::::::=>  :=::::::::",
":::::-::::::::::::::::",
":::-:::::;;::;:::;;:;:",
":-:::::-::;:;;:;;::::;",
"::::--::;;:;;:;::;-:;;",
"-:::::-::;;:;;:;;:;;;:",
"::---::-;;;;;:-;;-:;;;"
};
