/* XPM */
static char *menu_pressed[] = {
/* columns rows colors chars-per-pixel */
"22 22 19 1 ",
"  c black",
". c #1E1E1E",
"X c #2C2D2D",
"o c #2D2D2D",
"O c #4C4C4D",
"+ c #4D4D4D",
"@ c #5E5E5E",
"# c #616161",
"$ c #A1A1A1",
"% c #A2A3A2",
"& c #A2A2A3",
"* c #A3A2A3",
"= c #D2D2D2",
"- c #F2F1F1",
"; c #F4F4F4",
": c #F8F8F8",
"> c #FBFBFB",
", c #FCFCFC",
"< c #FFFFFF",
/* pixels */
"%%%%%%%%%%$%%%%$%%%%%%",
"<<<<<<<<<<<<<<<<<<<<<<",
"<<<<<<<<<<<<<<<<<<<<<<",
"<<<<<<<<<<<<<<<<<<<<<<",
"<<<<<<<<<<<<<<<<<<<<<<",
"<<<<<<<<<<<<<<<<<<<<<<",
"<<<<<<<<<<<<<<<<><<<<<",
"<<<<><<>;<  <;<<<<<<><",
"<><<<<<#.+  +.#<><<<><",
"<<>>><-.      .;<<><><",
"><><<<<+ o==o +<<>><<<",
">><><>   =<<=   ><<<>>",
"><>>>>   =><=   ><>>>>",
"><>>><<+ o==o +<><>>><",
">>>>>>-.      .->>>>>>",
">>>>>>>@.+  +.@>>>>>>>",
">>;<><>;->  >-;<>>>>>>",
">>>>>;><>>>>>>><;>>>>>",
">>>>>>;>>:>:>>>;<;<>>>",
";>;>;;>>:>:>;>;<;<->>-",
">:>>>>>;>:::::::>>>>;,",
";>;;>;<;:::::>:>->;;>;"
};
