/* XPM */
static char *title_2_inactive[] = {
/* columns rows colors chars-per-pixel */
"22 22 2 1 ",
"  c #BCBCBC",
". c #F8F8F8",
/* pixels */
"                      ",
"......................",
"......................",
"......................",
"......................",
"......................",
"......................",
"......................",
"......................",
"......................",
"......................",
"......................",
"......................",
"......................",
"......................",
"......................",
"......................",
"......................",
"......................",
"......................",
"......................",
"......................"
};
