/* XPM */
static char *top_right_active_shaded[] = {
/* columns rows colors chars-per-pixel */
"19 22 19 1 ",
"  c #929293",
". c #A2A2A3",
"X c #F8F8F8",
"o c #F9F8F8",
"O c #F9F9F8",
"+ c #F8F8F9",
"@ c #F9F8F9",
"# c #F8F9F9",
"$ c #F9F9F9",
"% c #FAFAFA",
"& c #FBFAFA",
"* c #FBFBFA",
"= c #FAFAFB",
"- c #FBFBFB",
"; c #FCFCFC",
": c #FDFDFD",
"> c #FEFEFE",
", c #FFFFFF",
"< c None",
/* pixels */
".................<<",
",,,,,,,,,,,,,,,,, <",
",,,,,,,,,,,,,,,,,,.",
",,,,,,,,,,,,,,,,,,.",
",,,,,,,,,,,,,,,,,,.",
",,,,,,,,,,,,,,,,,,.",
",,,,,,,,,,,,,,,,,,.",
",,,,,-,,,-,,-,,,,,.",
",;,,;,,,,-,,,-,,,,.",
";,-,,,;;,,-,-,,-;,.",
",-,--,-,--,,-,-,,,.",
",--,;-,;-,----,-;,.",
"-;;;-;,-;;-,,-,--,.",
"--;--,--;--------,.",
"----------------;,.",
"-----------------;.",
"---X-----X------X-.",
"-----XX----XX--X--.",
"X----X-X-XX---X---.",
"XXXXX-X-X-X-XXX-X-.",
"X-XXX-XX-XXXXX-XXX.",
"XXX-XXXXXXXXXXXXXX."
};
